<svg width="1280" height="89" viewBox="0 0 1280 89" fill="none" xmlns="http://www.w3.org/2000/svg">
<path d="M1220.14 2.12964H1255.63C1262.73 2.12964 1268.64 4.02255 1273.14 7.80837C1277.63 11.5942 1280 17.3912 1280 24.9629C1280 31.943 1277.63 37.5034 1273.14 41.6441C1268.52 45.9032 1262.37 47.9144 1254.8 47.9144H1222.5V86.3641H1220.14V2.12964ZM1222.5 4.37747V45.6666H1254.21C1260.95 45.6666 1266.51 44.0103 1270.89 40.4611C1275.27 37.0302 1277.52 31.943 1277.52 25.0812C1277.52 11.3576 1269.59 4.37747 1253.97 4.37747H1222.5Z" fill="black"/>
<path d="M1170.13 0C1181.84 0 1191.42 4.25905 1198.76 12.5405C1206.09 20.9403 1209.88 31.7062 1209.88 44.9566C1209.88 57.8521 1206.21 68.2631 1198.88 76.3079C1191.54 84.3528 1181.96 88.3752 1170.25 88.3752C1158.65 88.3752 1149.19 84.3528 1141.97 76.1896C1134.75 68.0265 1131.21 57.3788 1131.21 44.2468C1131.21 31.233 1134.75 20.7037 1142.09 12.4222C1149.31 4.14074 1158.65 0 1170.13 0ZM1170.36 2.24783C1159.6 2.24783 1150.84 6.15196 1143.98 13.9602C1137.12 21.7685 1133.81 31.8245 1133.81 44.0102C1133.81 56.5507 1137.12 66.6068 1143.86 74.415C1150.61 82.2233 1159.36 86.1274 1170.13 86.1274C1181.13 86.1274 1190.12 82.3416 1196.98 74.6516C1203.85 67.08 1207.28 57.1422 1207.28 44.8383C1207.28 32.2978 1203.85 22.1234 1196.98 14.1968C1190.12 6.27026 1181.25 2.24783 1170.36 2.24783Z" fill="black"/>
<path d="M1121.45 2.12964V86.3641H1118.97V43.537H1060.05V86.3641H1057.57V2.12964H1060.05V41.2892H1118.97V2.12964H1121.45Z" fill="black"/>
<path d="M1044.75 25.791L1042.27 25.9093C1041.67 10.5294 1032.21 2.83943 1013.87 2.83943C1005.83 2.83943 999.676 4.49572 995.18 7.92662C990.684 11.2392 988.436 15.9715 988.436 22.1234C988.436 24.0164 988.673 25.9093 989.265 27.5656C989.856 29.2219 990.566 30.5232 991.394 31.7063C992.104 32.8894 993.287 33.9541 994.825 35.0189C996.245 35.9654 997.664 36.7935 998.847 37.385C1000.03 37.9766 1001.57 38.5681 1003.7 39.278C1005.71 39.8695 1007.37 40.3427 1008.55 40.5793C1009.73 40.8159 1011.39 41.1709 1013.64 41.6441C1015.88 42.1173 1017.42 42.4722 1018.37 42.7089C1026.65 44.6018 1032.09 46.0214 1034.69 47.2045C1042.5 50.5171 1046.41 56.3141 1046.41 64.8322C1046.41 72.049 1043.69 77.7277 1038.24 81.8684C1032.8 86.0092 1025.23 88.1387 1015.77 88.1387C1006.18 88.1387 998.374 85.7726 992.459 81.0403C986.543 76.308 983.586 69.3279 983.586 60.1V58.562H985.952V58.9169C985.952 67.6716 988.436 74.2968 993.642 79.0291C998.729 83.7613 1006.06 86.1275 1015.65 86.1275C1024.52 86.1275 1031.5 84.2346 1036.47 80.4487C1041.44 76.6629 1044.04 71.4574 1044.04 64.7139C1044.04 62.821 1043.69 61.1647 1043.21 59.5084C1042.74 57.8521 1042.15 56.5508 1041.44 55.3677C1040.73 54.1846 1039.78 53.1199 1038.48 52.1734C1037.06 51.2269 1035.88 50.3988 1034.93 49.8073C1033.87 49.334 1032.45 48.7425 1030.55 48.0327C1028.66 47.4411 1027.12 46.9679 1026.18 46.7313L1021.33 45.6665C1019.2 45.1933 1017.66 44.8384 1016.83 44.6018C1016.12 44.4835 1014.82 44.2468 1012.81 43.7736C1010.8 43.3004 1009.38 42.9455 1008.55 42.7089C1007.6 42.4722 1006.3 42.1173 1004.41 41.6441C1002.51 41.1709 1001.21 40.6976 1000.27 40.2244C999.321 39.8695 998.019 39.278 996.481 38.5681C994.943 37.8583 993.76 37.1484 992.932 36.4386C992.104 35.7287 991.157 34.9006 990.211 33.8358C989.146 32.7711 988.318 31.7063 987.845 30.5232C987.372 29.3402 986.898 28.0388 986.543 26.6191C986.07 25.1994 985.952 23.5431 985.952 21.7685C985.952 15.1433 988.436 9.93784 993.405 6.15202C998.374 2.3662 1005.12 0.35498 1013.75 0.35498C1022.86 0.35498 1030.2 2.48451 1035.88 6.62525C1041.44 10.8843 1044.4 17.2729 1044.75 25.791Z" fill="black"/>
<path d="M979.354 2.12964L938.538 37.6217L982.075 86.3641H978.999L936.763 39.278L917.479 56.3142V86.3641H915.113V2.12964H917.479V53.4748L975.923 2.12964H979.354Z" fill="black"/>
<path d="M843.144 2.12964H876.506C884.551 2.12964 891.176 3.90424 896.145 7.33514C901.114 10.766 903.717 16.4448 903.717 24.253C903.717 30.2867 901.824 35.1373 898.275 38.8048C894.725 42.5906 889.993 44.7201 884.078 45.43C894.134 46.613 899.931 50.9904 901.469 58.4437C901.942 60.5732 902.297 65.3055 902.534 72.6405C902.652 79.9756 903.243 84.5895 904.426 86.3641H901.942C901.469 86.2458 900.996 84.8261 900.759 81.9868C900.522 79.2657 900.286 75.5982 900.049 70.9842C899.813 66.4886 899.694 64.0041 899.694 63.7675C899.458 60.6916 898.748 58.0888 897.801 55.9593C896.855 53.8297 895.672 52.1735 894.252 50.9904C892.832 49.8073 891.058 48.9792 888.692 48.2693C886.326 47.5595 884.196 47.2046 882.067 46.9679C879.937 46.8496 877.216 46.7313 873.903 46.7313H845.628V86.3641H843.144V2.12964ZM845.628 4.25916V44.4835H873.312C892.004 44.4835 901.35 37.74 901.35 24.253C901.35 20.3489 900.641 17.0363 899.221 14.3152C897.801 11.5942 895.908 9.46466 893.306 8.04498C890.703 6.6253 888.1 5.67884 885.261 5.08731C882.421 4.61408 879.109 4.25916 875.56 4.25916H845.628Z" fill="black"/>
<path d="M793.371 0C805.084 0 814.667 4.25905 822.002 12.5405C829.337 20.9403 833.123 31.7062 833.123 44.9566C833.123 57.8521 829.455 68.2631 822.12 76.3079C814.785 84.3528 805.202 88.3752 793.49 88.3752C781.896 88.3752 772.431 84.3528 765.214 76.1896C757.998 68.0265 754.448 57.3788 754.448 44.2468C754.448 31.233 757.998 20.7037 765.333 12.4222C772.549 4.14074 781.896 0 793.371 0ZM793.608 2.24783C782.842 2.24783 774.087 6.15196 767.226 13.9602C760.364 21.7685 757.051 31.8245 757.051 44.0102C757.051 56.5507 760.364 66.6068 767.107 74.415C773.851 82.2233 782.606 86.1274 793.371 86.1274C804.374 86.1274 813.365 82.3416 820.227 74.6516C827.089 67.08 830.52 57.1422 830.52 44.8383C830.52 32.2978 827.089 22.1234 820.227 14.1968C813.365 6.27026 804.492 2.24783 793.608 2.24783Z" fill="black"/>
<path d="M752.66 2.12964L727.934 86.3641H724.74L699.659 4.25916L675.287 86.3641H672.211L646.539 2.12964H649.378L673.749 83.5248L697.884 2.12964H701.552L726.278 83.5248L750.294 2.12964H752.66Z" fill="black"/>
<path d="M577.803 2.12964H615.898C623.825 2.12964 630.213 4.02255 634.946 7.80837C639.678 11.5942 642.162 17.2729 642.162 24.8446C642.162 30.2867 640.624 34.9006 637.785 38.4499C634.946 41.9991 630.923 44.4835 625.718 45.6666C630.805 46.613 634.472 48.6242 636.602 51.5819C638.731 54.5396 640.033 58.9169 640.506 64.714C640.506 64.9506 640.506 66.0154 640.624 67.9083C640.624 69.9195 640.743 71.5758 640.861 72.9955C640.979 74.4151 641.216 76.1898 641.453 78.0827C641.689 80.0939 642.162 81.7502 642.636 83.1699C643.109 84.5895 643.819 85.6543 644.529 86.3641H635.419C634.709 85.536 634.117 83.998 633.881 81.7502C633.526 79.6207 633.289 76.7813 633.171 73.2321C632.934 69.8012 632.934 67.9083 632.934 67.6717C632.343 60.1 630.45 55.0128 627.374 52.5284C624.18 50.0439 618.619 48.7425 610.574 48.7425H585.848V86.3641H577.803V2.12964ZM585.848 8.99143V42.354H609.628C613.059 42.354 616.017 42.2357 618.619 41.7624C621.104 41.4075 623.588 40.6977 626.191 39.5146C628.794 38.4499 630.687 36.6752 632.106 34.3091C633.526 31.943 634.236 28.867 634.236 25.3178C634.236 14.4336 627.256 8.99143 613.295 8.99143H585.848Z" fill="black"/>
<path d="M536.646 1.89282L570.246 86.3639H561.373L551.198 59.8632H512.63L502.338 86.3639H493.701L527.773 1.89282H536.646ZM548.714 53.3563L532.151 9.46446L515.115 53.3563H548.714Z" fill="black"/>
<path d="M486.236 2.12964V86.3641H477.363L438.203 29.8134C432.998 22.2418 429.212 16.3265 427.082 11.8308C427.437 17.5095 427.674 24.1347 427.674 31.943V86.3641H419.866V2.12964H428.739L468.135 59.2719C472.512 65.6604 476.18 71.5758 479.137 76.8996C478.664 64.5957 478.546 57.1423 478.546 54.6579V2.12964H486.236Z" fill="black"/>
<path d="M378.827 1.89282L412.426 86.3639H403.553L393.379 59.8632H354.811L344.518 86.3639H335.882L369.954 1.89282H378.827ZM390.894 53.3563L374.331 9.46446L357.295 53.3563H390.894Z" fill="black"/>
<path d="M341.984 2.12964V8.99143H296.199V39.278H336.896V46.1398H296.199V86.3641H288.272V2.12964H341.984Z" fill="black"/>
<path d="M247.234 1.89282L280.833 86.3639H271.96L261.785 59.8632H223.217L212.925 86.3639H204.288L238.361 1.89282H247.234ZM259.301 53.3563L242.738 9.46446L225.702 53.3563H259.301Z" fill="black"/>
<path d="M198.15 26.3823H190.342C189.987 20.2304 187.739 15.4981 183.598 12.1855C179.458 8.87293 173.897 7.21663 166.917 7.21663C160.292 7.21663 155.086 8.63632 151.419 11.3574C147.633 14.1967 145.859 18.1009 145.859 23.0698C145.859 24.9627 145.977 26.5007 146.45 27.9203C146.923 29.34 147.633 30.5231 148.816 31.4695C149.999 32.5343 151.064 33.3625 152.01 34.0723C152.957 34.7821 154.613 35.3737 156.861 36.0835C158.991 36.7934 160.765 37.2666 162.185 37.6215C163.486 37.9764 165.616 38.4496 168.573 39.0412C171.649 39.751 174.252 40.3426 176.263 40.8158C178.156 41.289 180.404 41.9989 183.007 42.7087C185.491 43.5368 187.503 44.365 189.041 45.0748C190.579 45.903 192.235 46.8494 193.891 48.0325C195.547 49.2156 196.73 50.517 197.677 51.9366C198.505 53.3563 199.215 55.1309 199.806 57.0238C200.398 58.9167 200.753 61.0463 200.753 63.4124C200.753 69.2094 199.097 74.06 195.902 77.8458C192.708 81.75 188.804 84.471 184.308 85.8907C179.694 87.4287 174.607 88.1385 169.047 88.1385C158.517 88.1385 150.236 85.6541 144.321 80.4486C138.405 75.3614 135.448 68.263 135.448 59.2717V58.5618H143.137C143.137 66.2518 145.385 72.0488 150.118 75.8346C154.85 79.7388 161.357 81.6317 169.638 81.6317C176.855 81.6317 182.534 80.0937 186.793 77.0177C190.933 73.9417 193.063 69.6827 193.063 64.2405C193.063 59.035 191.052 55.2492 187.029 53.0014C183.007 50.7536 175.554 48.2691 164.551 45.6664C161.002 44.9565 158.281 44.2467 156.624 43.7735C154.968 43.3002 152.72 42.4721 149.881 41.289C147.042 40.1059 144.912 38.9229 143.492 37.5032C142.073 36.0835 140.89 34.1906 139.825 31.8245C138.642 29.4583 138.169 26.7373 138.169 23.543C138.169 16.4446 140.771 10.8841 145.977 6.74341C151.182 2.60267 158.399 0.473145 167.509 0.473145C176.618 0.473145 183.953 2.72097 189.395 7.09833C194.838 11.4757 197.677 17.8643 198.15 26.3823Z" fill="black"/>
<path d="M98.1947 1.89282L131.794 86.3639H122.921L112.746 59.8632H74.1784L63.8857 86.3639H55.2493L89.3217 1.89282H98.1947ZM110.262 53.3563L93.6991 9.46446L76.6629 53.3563H110.262Z" fill="black"/>
<path d="M48.0326 2.12964V63.5309C48.0326 80.0939 40.106 88.257 24.2529 88.257C15.7348 88.257 9.46455 86.1275 5.67873 81.7502C1.89291 77.4911 0 70.9842 0 62.4661C0 61.4014 0 60.3366 0.118307 59.1536H7.80825V61.638C7.80825 68.3815 8.87302 73.3504 11.1208 76.663C13.3687 79.9756 17.746 81.6319 24.2529 81.6319C30.5232 81.6319 34.7822 79.9756 36.9118 76.4264C39.0413 72.9955 40.106 68.0266 40.106 61.4014V2.12964H48.0326Z" fill="black"/>
</svg>
