<svg width="1280" height="125" viewBox="0 0 1280 125" fill="none" xmlns="http://www.w3.org/2000/svg">
<path d="M1195 3H1245.4C1255.47 3 1263.87 5.67415 1270.26 11.0225C1276.64 16.3708 1280 24.5604 1280 35.257C1280 45.118 1276.64 52.9733 1270.26 58.823C1263.71 64.8399 1254.97 67.6812 1244.22 67.6812H1198.36V122H1195V3ZM1198.36 6.17556V64.5056H1243.38C1252.95 64.5056 1260.85 62.1657 1267.07 57.1517C1273.28 52.3048 1276.47 45.118 1276.47 35.4242C1276.47 16.0365 1265.22 6.17556 1243.04 6.17556H1198.36Z" fill="white"/>
<path d="M1124.92 0C1141.44 0 1154.96 6.0241 1165.31 17.7376C1175.66 29.6185 1181 44.8461 1181 63.5877C1181 81.8273 1175.83 96.5529 1165.48 107.932C1155.13 119.311 1141.61 125 1125.08 125C1108.72 125 1095.37 119.311 1085.19 107.764C1075.01 96.2182 1070 81.158 1070 62.5837C1070 44.1767 1075.01 29.2838 1085.36 17.5703C1095.54 5.85676 1108.72 0 1124.92 0ZM1125.25 3.17938C1110.06 3.17938 1097.71 8.70147 1088.03 19.7456C1078.35 30.7898 1073.67 45.0134 1073.67 62.249C1073.67 79.9866 1078.35 94.2102 1087.86 105.254C1097.37 116.299 1109.73 121.821 1124.92 121.821C1140.44 121.821 1153.12 116.466 1162.81 105.589C1172.49 94.8795 1177.33 80.8233 1177.33 63.4203C1177.33 45.6827 1172.49 31.2918 1162.81 20.0803C1153.12 8.8688 1140.61 3.17938 1125.25 3.17938Z" fill="white"/>
<path d="M1056 3V122H1052.46V61.4972H968.539V122H965V3H968.539V58.3216H1052.46V3H1056Z" fill="white"/>
<path d="M947.653 36.2197L944.134 36.3881C943.296 14.4879 929.887 3.53774 903.908 3.53774C892.51 3.53774 883.795 5.89623 877.426 10.7817C871.057 15.4987 867.872 22.2372 867.872 30.9973C867.872 33.6927 868.207 36.3881 869.045 38.7466C869.883 41.1051 870.889 42.9582 872.062 44.6429C873.068 46.3275 874.744 47.8437 876.923 49.3598C878.934 50.7075 880.945 51.8868 882.621 52.7291C884.298 53.5714 886.476 54.4137 889.493 55.4245C892.343 56.2668 894.689 56.9407 896.365 57.2776C898.041 57.6146 900.388 58.1199 903.572 58.7938C906.757 59.4677 908.936 59.973 910.277 60.31C922.009 63.0054 929.719 65.0269 933.407 66.7116C944.469 71.4286 950 79.6833 950 91.8127C950 102.089 946.145 110.175 938.435 116.071C930.725 121.968 919.998 125 906.589 125C893.013 125 881.951 121.631 873.571 114.892C865.19 108.154 861 98.2143 861 85.0741V82.8841H864.352V83.3895C864.352 95.8558 867.872 105.29 875.247 112.028C882.454 118.767 892.846 122.136 906.422 122.136C918.992 122.136 928.881 119.441 935.921 114.05C942.96 108.659 946.648 101.247 946.648 91.6442C946.648 88.9488 946.145 86.5903 945.475 84.2318C944.804 81.8733 943.966 80.0202 942.96 78.3356C941.955 76.6509 940.614 75.1348 938.77 73.7871C936.759 72.4394 935.083 71.2601 933.742 70.4178C932.233 69.7439 930.222 68.9016 927.54 67.8908C924.859 67.0485 922.68 66.3747 921.339 66.0377L914.467 64.5216C911.45 63.8477 909.271 63.3423 908.098 63.0054C907.092 62.8369 905.249 62.5 902.399 61.8261C899.55 61.1523 897.539 60.6469 896.365 60.31C895.024 59.973 893.181 59.4677 890.499 58.7938C887.817 58.1199 885.974 57.4461 884.633 56.7722C883.292 56.2668 881.448 55.4245 879.269 54.4137C877.09 53.403 875.414 52.3922 874.241 51.3814C873.068 50.3706 871.727 49.1914 870.386 47.6752C868.878 46.159 867.704 44.6429 867.034 42.9582C866.363 41.2736 865.693 39.4205 865.19 37.3989C864.52 35.3774 864.352 33.0189 864.352 30.4919C864.352 21.0579 867.872 13.6456 874.911 8.25472C881.951 2.86389 891.505 0 903.74 0C916.646 0 927.038 3.03235 935.083 8.92858C942.96 14.9933 947.151 24.0903 947.653 36.2197Z" fill="white"/>
<path d="M855.14 3L797.233 53.1404L859 122H854.636L794.716 55.4803L767.357 79.5478V122H764V3H767.357V75.5365L850.272 3H855.14Z" fill="white"/>
<path d="M662 3H709.363C720.784 3 730.189 5.50702 737.243 10.3539C744.297 15.2008 747.992 23.2233 747.992 34.2542C747.992 42.7781 745.305 49.6306 740.266 54.8118C735.228 60.1601 728.51 63.1685 720.112 64.1713C734.388 65.8427 742.618 72.0267 744.801 82.5562C745.473 85.5646 745.977 92.25 746.313 102.612C746.481 112.975 747.32 119.493 749 122H745.473C744.801 121.833 744.129 119.827 743.793 115.816C743.458 111.972 743.122 106.791 742.786 100.272C742.45 93.9213 742.282 90.4115 742.282 90.0772C741.946 85.7317 740.938 82.0548 739.595 79.0463C738.251 76.0379 736.571 73.698 734.556 72.0267C732.541 70.3553 730.021 69.1854 726.662 68.1826C723.303 67.1798 720.28 66.6784 717.257 66.3441C714.234 66.177 710.371 66.0098 705.668 66.0098H665.527V122H662V3ZM665.527 6.00843V62.8343H704.828C731.365 62.8343 744.633 53.3076 744.633 34.2542C744.633 28.7388 743.626 24.059 741.61 20.2149C739.595 16.3708 736.907 13.3624 733.212 11.3567C729.517 9.35112 725.822 8.01404 721.792 7.17837C717.761 6.50983 713.058 6.00843 708.019 6.00843H665.527Z" fill="white"/>
<path d="M591.411 0C608.084 0 621.726 6.0241 632.168 17.7376C642.61 29.6185 648 44.8461 648 63.5877C648 81.8273 642.779 96.5529 632.337 107.932C621.895 119.311 608.253 125 591.579 125C575.074 125 561.6 119.311 551.326 107.764C541.053 96.2182 536 81.158 536 62.5837C536 44.1767 541.053 29.2838 551.495 17.5703C561.768 5.85676 575.074 0 591.411 0ZM591.747 3.17938C576.421 3.17938 563.958 8.70147 554.189 19.7456C544.421 30.7898 539.705 45.0134 539.705 62.249C539.705 79.9866 544.421 94.2102 554.021 105.254C563.621 116.299 576.084 121.821 591.411 121.821C607.074 121.821 619.874 116.466 629.642 105.589C639.411 94.8795 644.295 80.8233 644.295 63.4203C644.295 45.6827 639.411 31.2918 629.642 20.0803C619.874 8.8688 607.242 3.17938 591.747 3.17938Z" fill="white"/>
<path d="M534 3L499.05 122H494.535L459.084 6.00843L424.635 122H420.288L384 3H388.013L422.462 117.989L456.575 3H461.759L496.709 117.989L530.656 3H534Z" fill="white"/>
<path d="M246 105V122H233V105H246Z" fill="white"/>
<path d="M169.155 3L217 122H204.365L189.876 84.6667H134.955L120.298 122H108L156.519 3H169.155ZM186.339 75.5L162.753 13.6667L138.493 75.5H186.339Z" fill="white"/>
<path d="M93 105V122H79V105H93Z" fill="white"/>
<path d="M68 3V89.9753C68 113.437 56.7783 125 34.335 125C22.2759 125 13.399 121.984 8.03941 115.783C2.6798 109.75 0 100.533 0 88.467C0 86.9588 -1.83022e-07 85.4506 0.167488 83.7747H11.0542V87.294C11.0542 96.8462 12.5616 103.885 15.7438 108.577C18.9261 113.269 25.1232 115.615 34.335 115.615C43.2118 115.615 49.2414 113.269 52.2562 108.242C55.2709 103.382 56.7783 96.3434 56.7783 86.9588V3H68Z" fill="white"/>
</svg>
