<svg width="1142" height="125" viewBox="0 0 1142 125" fill="none" xmlns="http://www.w3.org/2000/svg">
<path d="M1057.17 3.01206H1107.37C1117.41 3.01206 1125.78 5.68943 1132.13 11.0442C1138.49 16.3989 1141.84 24.5984 1141.84 35.3079C1141.84 45.1807 1138.49 53.0455 1132.13 58.9023C1125.61 64.9264 1116.91 67.7711 1106.2 67.7711H1060.51V122.155H1057.17V3.01206ZM1060.51 6.19144V64.5917H1105.36C1114.9 64.5917 1122.76 62.249 1128.95 57.2289C1135.15 52.3762 1138.33 45.1807 1138.33 35.4752C1138.33 16.0643 1127.11 6.19144 1105.03 6.19144H1060.51Z" fill="white"/>
<path d="M986.434 0C1003 0 1016.55 6.0241 1026.93 17.7376C1037.3 29.6185 1042.66 44.8461 1042.66 63.5877C1042.66 81.8273 1037.47 96.5529 1027.1 107.932C1016.72 119.311 1003.17 125 986.602 125C970.203 125 956.816 119.311 946.608 107.764C936.401 96.2182 931.381 81.158 931.381 62.5837C931.381 44.1767 936.401 29.2838 946.776 17.5703C956.983 5.85675 970.203 0 986.434 0ZM986.769 3.17938C971.541 3.17938 959.158 8.70147 949.453 19.7456C939.747 30.7898 935.062 45.0134 935.062 62.249C935.062 79.9866 939.747 94.2102 949.286 105.254C958.824 116.299 971.207 121.821 986.434 121.821C1002 121.821 1014.71 116.466 1024.42 105.589C1034.13 94.8795 1038.98 80.8233 1038.98 63.4203C1038.98 45.6827 1034.13 31.2918 1024.42 20.0803C1014.71 8.8688 1002.16 3.17938 986.769 3.17938Z" fill="white"/>
<path d="M917.586 3.01206V122.155H914.072V61.5797H830.739V122.155H827.225V3.01206H830.739V58.4003H914.072V3.01206H917.586Z" fill="white"/>
<path d="M809.097 36.4793L805.583 36.6466C804.746 14.8929 791.36 4.01607 765.423 4.01607C754.044 4.01607 745.342 6.35877 738.983 11.2115C732.625 15.8969 729.445 22.5904 729.445 31.2918C729.445 33.9692 729.78 36.6466 730.617 38.9893C731.453 41.332 732.457 43.1727 733.629 44.8461C734.633 46.5194 736.306 48.0254 738.481 49.5315C740.489 50.8701 742.498 52.0415 744.171 52.8782C745.844 53.7149 748.02 54.5515 751.032 55.5556C753.876 56.3922 756.219 57.0616 757.892 57.3963C759.566 57.7309 761.908 58.2329 765.088 58.9023C768.267 59.5716 770.443 60.0736 771.781 60.4083C783.495 63.0857 791.192 65.0937 794.874 66.7671C805.918 71.4525 811.44 79.6519 811.44 91.7001C811.44 101.908 807.591 109.94 799.894 115.797C792.196 121.653 781.487 124.665 768.1 124.665C754.546 124.665 743.502 121.319 735.135 114.625C726.768 107.932 722.584 98.0589 722.584 85.0067V82.8313H725.931V83.3333C725.931 95.7162 729.445 105.087 736.808 111.78C744.004 118.474 754.378 121.821 767.933 121.821C780.483 121.821 790.356 119.143 797.384 113.788C804.412 108.434 808.093 101.071 808.093 91.5328C808.093 88.8554 807.591 86.5127 806.922 84.17C806.253 81.8273 805.416 79.9866 804.412 78.3133C803.408 76.6399 802.069 75.1339 800.228 73.7952C798.22 72.4565 796.547 71.2851 795.208 70.4485C793.702 69.7791 791.694 68.9424 789.017 67.9384C786.34 67.1017 784.164 66.4324 782.825 66.0977L775.965 64.5917C772.953 63.9224 770.777 63.4204 769.606 63.0857C768.602 62.9183 766.761 62.5837 763.916 61.9143C761.072 61.245 759.064 60.743 757.892 60.4083C756.554 60.0736 754.713 59.5716 752.036 58.9023C749.358 58.2329 747.518 57.5636 746.179 56.8942C744.84 56.3922 742.999 55.5556 740.824 54.5515C738.649 53.5475 736.975 52.5435 735.804 51.5395C734.633 50.5355 733.294 49.3641 731.955 47.8581C730.449 46.3521 729.278 44.8461 728.609 43.1727C727.939 41.4993 727.27 39.6586 726.768 37.6506C726.099 35.6426 725.931 33.2999 725.931 30.7898C725.931 21.419 729.445 14.0562 736.473 8.70148C743.502 3.34672 753.04 0.502007 765.255 0.502007C778.14 0.502007 788.515 3.51406 796.547 9.37082C804.412 15.3949 808.595 24.4311 809.097 36.4793Z" fill="white"/>
<path d="M716.598 3.01206L658.867 53.2129L720.447 122.155H716.096L656.357 55.5556L629.082 79.652V122.155H625.735V3.01206H629.082V75.6359L711.746 3.01206H716.598Z" fill="white"/>
<path d="M523.94 3.01206H571.128C582.507 3.01206 591.878 5.5221 598.906 10.3748C605.934 15.2276 609.616 23.2597 609.616 34.3039C609.616 42.838 606.938 49.6988 601.918 54.8862C596.898 60.241 590.205 63.253 581.838 64.257C596.062 65.9304 604.261 72.1218 606.436 82.664C607.106 85.6761 607.608 92.3695 607.942 102.744C608.11 113.119 608.946 119.645 610.62 122.155H607.106C606.436 121.988 605.767 119.98 605.432 115.964C605.098 112.115 604.763 106.928 604.428 100.402C604.094 94.0429 603.926 90.5288 603.926 90.1941C603.592 85.8434 602.588 82.162 601.249 79.1499C599.91 76.1379 598.237 73.7952 596.229 72.1218C594.221 70.4485 591.711 69.2771 588.364 68.2731C585.017 67.2691 582.005 66.7671 578.993 66.4324C575.981 66.2651 572.132 66.0977 567.447 66.0977H527.454V122.155H523.94V3.01206ZM527.454 6.02411V62.9184H566.61C593.05 62.9184 606.269 53.3802 606.269 34.3039C606.269 28.7818 605.265 24.0964 603.257 20.2477C601.249 16.3989 598.572 13.3869 594.89 11.3789C591.209 9.37083 587.527 8.03214 583.511 7.19546C579.495 6.52611 574.81 6.02411 569.79 6.02411H527.454Z" fill="white"/>
<path d="M453.541 0C470.107 0 483.661 6.0241 494.036 17.7376C504.411 29.6185 509.766 44.8461 509.766 63.5877C509.766 81.8273 504.578 96.5529 494.203 107.932C483.829 119.311 470.274 125 453.708 125C437.309 125 423.922 119.311 413.715 107.764C403.507 96.2182 398.487 81.158 398.487 62.5837C398.487 44.1767 403.507 29.2838 413.882 17.5703C424.09 5.85675 437.309 0 453.541 0ZM453.876 3.17938C438.648 3.17938 426.265 8.70147 416.56 19.7456C406.854 30.7898 402.169 45.0134 402.169 62.249C402.169 79.9866 406.854 94.2102 416.392 105.254C425.93 116.299 438.313 121.821 453.541 121.821C469.103 121.821 481.821 116.466 491.526 105.589C501.232 94.8795 506.084 80.8233 506.084 63.4203C506.084 45.6827 501.232 31.2918 491.526 20.0803C481.821 8.8688 469.27 3.17938 453.876 3.17938Z" fill="white"/>
<path d="M395.958 3.01206L360.984 122.155H356.466L320.991 6.02411L286.52 122.155H282.169L245.857 3.01206H249.873L284.345 118.139L318.481 3.01206H323.669L358.642 118.139L392.611 3.01206H395.958Z" fill="white"/>
<path d="M245.915 104.92V122.155H232.193V104.92H245.915Z" fill="white"/>
<path d="M169.462 2.6774L216.985 122.155H204.435L190.044 84.6721H135.493L120.935 122.155H108.719L156.912 2.6774H169.462ZM186.53 75.4686L163.103 13.3869L139.007 75.4686H186.53Z" fill="white"/>
<path d="M93.9398 104.92V122.155H80.2183V104.92H93.9398Z" fill="white"/>
<path d="M67.9384 3.01206V89.8595C67.9384 113.286 56.7269 124.833 34.3039 124.833C22.2557 124.833 13.3869 121.821 8.03213 115.629C2.67738 109.605 0 100.402 0 88.3534C0 86.8474 1.92949e-07 85.3414 0.167336 83.668H11.0442V87.1821C11.0442 96.7202 12.5502 103.748 15.7296 108.434C18.909 113.119 25.1004 115.462 34.3039 115.462C43.1727 115.462 49.1968 113.119 52.2088 108.099C55.2209 103.246 56.7269 96.2182 56.7269 86.8474V3.01206H67.9384Z" fill="white"/>
</svg>
