<svg width="1248" height="61" viewBox="0 0 1248 61" fill="none" xmlns="http://www.w3.org/2000/svg">
<path d="M1217.27 60.4392V0H1229.56V60.4392H1217.27ZM1232.63 60.4392V0H1241.85V60.4392H1232.63ZM1244.93 60.4392V0H1248V60.4392H1244.93Z" fill="white"/>
<path d="M1183.46 60.4392V0H1186.53V60.4392H1183.46ZM1195.75 60.4392V0H1208.04V60.4392H1195.75ZM1211.11 60.4392V0H1214.19V60.4392H1211.11Z" fill="white"/>
<path d="M1149.64 60.4392V0H1152.72V60.4392H1149.64ZM1165.01 60.4392V0H1168.08V60.4392H1165.01ZM1171.15 60.4392V0H1177.3V60.4392H1171.15Z" fill="white"/>
<path d="M1115.83 60.4392V0H1118.9V60.4392H1115.83ZM1125.05 60.4392V0H1131.2V60.4392H1125.05ZM1137.34 60.4392V0H1146.56V60.4392H1137.34Z" fill="white"/>
<path d="M1082.02 60.4392V0H1088.16V60.4392H1082.02ZM1100.46 60.4392V0H1103.53V60.4392H1100.46ZM1109.67 60.4392V0H1112.75V60.4392H1109.67Z" fill="white"/>
<path d="M1048.2 60.4392V0H1051.28V60.4392H1048.2ZM1060.5 60.4392V0H1072.79V60.4392H1060.5ZM1075.86 60.4392V0H1078.93V60.4392H1075.86Z" fill="white"/>
<path d="M1014.39 60.4392V0H1017.46V60.4392H1014.39ZM1026.68 60.4392V0H1038.98V60.4392H1026.68ZM1042.05 60.4392V0H1045.12V60.4392H1042.05Z" fill="white"/>
<path d="M980.577 60.4392V0H986.723V60.4392H980.577ZM992.87 60.4392V0H995.943V60.4392H992.87ZM999.016 60.4392V0H1002.09V60.4392H999.016Z" fill="white"/>
<path d="M946.764 60.4392V0H949.837V60.4392H946.764ZM955.984 60.4392V0H968.276V60.4392H955.984ZM971.35 60.4392V0H974.423V60.4392H971.35Z" fill="white"/>
<path d="M912.951 60.4392V0H916.024V60.4392H912.951ZM922.171 60.4392V0H934.463V60.4392H922.171ZM940.61 60.4392V0H943.683V60.4392H940.61Z" fill="white"/>
<path d="M879.138 60.4392V0H882.211V60.4392H879.138ZM891.431 60.4392V0H903.724V60.4392H891.431ZM906.797 60.4392V0H909.87V60.4392H906.797Z" fill="white"/>
<path d="M845.325 60.4392V0H851.472V60.4392H845.325ZM860.691 60.4392V0H866.837V60.4392H860.691ZM869.911 60.4392V0H876.057V60.4392H869.911Z" fill="white"/>
<path d="M811.512 60.4392V0H817.658V60.4392H811.512ZM829.951 60.4392V0H833.024V60.4392H829.951ZM836.098 60.4392V0H839.171V60.4392H836.098Z" fill="white"/>
<path d="M777.699 60.4392V0H780.772V60.4392H777.699ZM786.919 60.4392V0H789.992V60.4392H786.919ZM793.065 60.4392V0H799.211V60.4392H793.065Z" fill="white"/>
<path d="M743.886 60.4392V0H756.179V60.4392H743.886ZM759.252 60.4392V0H768.472V60.4392H759.252ZM771.545 60.4392V0H774.618V60.4392H771.545Z" fill="white"/>
<path d="M710.073 60.4392V0H713.146V60.4392H710.073ZM725.439 60.4392V0H731.585V60.4392H725.439ZM734.658 60.4392V0H737.732V60.4392H734.658Z" fill="white"/>
<path d="M676.26 60.4392V0H679.333V60.4392H676.26ZM685.48 60.4392V0H688.553V60.4392H685.48ZM691.626 60.4392V0H697.772V60.4392H691.626Z" fill="white"/>
<path d="M642.447 60.4392V0H648.593V60.4392H642.447ZM654.74 60.4392V0H657.813V60.4392H654.74ZM660.886 60.4392V0H663.959V60.4392H660.886Z" fill="white"/>
<path d="M608.634 60.4392V0H611.707V60.4392H608.634ZM620.927 60.4392V0H633.219V60.4392H620.927ZM636.293 60.4392V0H639.366V60.4392H636.293Z" fill="white"/>
<path d="M574.821 60.4392V0H577.894V60.4392H574.821ZM580.967 60.4392V0H593.26V60.4392H580.967ZM599.406 60.4392V0H602.48V60.4392H599.406Z" fill="white"/>
<path d="M541.008 60.4392V0H544.081V60.4392H541.008ZM550.228 60.4392V0H556.374V60.4392H550.228ZM562.52 60.4392V0H571.74V60.4392H562.52Z" fill="white"/>
<path d="M507.195 60.4392V0H513.341V60.4392H507.195ZM516.415 60.4392V0H528.707V60.4392H516.415ZM531.781 60.4392V0H537.927V60.4392H531.781Z" fill="white"/>
<path d="M473.382 60.4392V0H476.455V60.4392H473.382ZM488.748 60.4392V0H494.894V60.4392H488.748ZM497.968 60.4392V0H501.041V60.4392H497.968Z" fill="white"/>
<path d="M439.569 60.4392V0H442.642V60.4392H439.569ZM451.862 60.4392V0H464.155V60.4392H451.862ZM467.228 60.4392V0H470.301V60.4392H467.228Z" fill="white"/>
<path d="M405.756 60.4392V0H418.049V60.4392H405.756ZM421.122 60.4392V0H430.342V60.4392H421.122ZM433.415 60.4392V0H436.488V60.4392H433.415Z" fill="white"/>
<path d="M371.943 60.4392V0H378.089V60.4392H371.943ZM384.236 60.4392V0H387.309V60.4392H384.236ZM390.382 60.4392V0H393.455V60.4392H390.382Z" fill="white"/>
<path d="M338.13 60.4392V0H341.203V60.4392H338.13ZM347.35 60.4392V0H359.642V60.4392H347.35ZM365.789 60.4392V0H368.862V60.4392H365.789Z" fill="white"/>
<path d="M304.317 60.4392V0H307.39V60.4392H304.317ZM319.683 60.4392V0H322.756V60.4392H319.683ZM328.902 60.4392V0H335.049V60.4392H328.902Z" fill="white"/>
<path d="M270.504 60.4392V0H273.577V60.4392H270.504ZM279.724 60.4392V0H282.797V60.4392H279.724ZM295.089 60.4392V0H301.236V60.4392H295.089Z" fill="white"/>
<path d="M236.691 60.4392V0H239.764V60.4392H236.691ZM245.911 60.4392V0H248.984V60.4392H245.911ZM252.057 60.4392V0H258.203V60.4392H252.057Z" fill="white"/>
<path d="M202.878 60.4392V0H212.098V60.4392H202.878ZM218.244 60.4392V0H221.317V60.4392H218.244ZM227.463 60.4392V0H233.61V60.4392H227.463Z" fill="white"/>
<path d="M169.065 60.4392V0H172.138V60.4392H169.065ZM181.358 60.4392V0H193.65V60.4392H181.358ZM196.724 60.4392V0H199.797V60.4392H196.724Z" fill="white"/>
<path d="M135.252 60.4392V0H138.325V60.4392H135.252ZM144.472 60.4392V0H156.764V60.4392H144.472ZM159.837 60.4392V0H162.911V60.4392H159.837Z" fill="white"/>
<path d="M101.439 60.4392V0H107.585V60.4392H101.439ZM113.732 60.4392V0H116.805V60.4392H113.732ZM119.878 60.4392V0H122.951V60.4392H119.878Z" fill="white"/>
<path d="M67.626 60.4392V0H70.6992V60.4392H67.626ZM82.9919 60.4392V0H89.1383V60.4392H82.9919ZM92.2115 60.4392V0H95.2846V60.4392H92.2115Z" fill="white"/>
<path d="M33.813 60.4392V0H36.8862V60.4392H33.813ZM43.0325 60.4392V0H46.1057V60.4392H43.0325ZM49.1789 60.4392V0H55.3253V60.4392H49.1789Z" fill="white"/>
<path d="M0 60.4392V0H12.2927V60.4392H0ZM15.3659 60.4392V0H24.5855V60.4392H15.3659ZM27.6586 60.4392V0H30.7318V60.4392H27.6586Z" fill="white"/>
</svg>
